<?xml version="1.0" standalone="no"?>
<!DOCTYPE svg PUBLIC "-//W3C//DTD SVG 20010904//EN"
 "http://www.w3.org/TR/2001/REC-SVG-20010904/DTD/svg10.dtd">
<svg version="1.0" xmlns="http://www.w3.org/2000/svg"
 width="111.000000pt" height="115.000000pt" viewBox="0 0 111.000000 115.000000"
 preserveAspectRatio="xMidYMid meet">

<g transform="translate(0.000000,115.000000) scale(0.100000,-0.100000)"
fill="#000000" stroke="none">
<path d="M423 966 c-133 -43 -241 -161 -273 -298 -42 -184 49 -377 218 -460
61 -30 74 -33 162 -33 83 0 103 4 153 27 54 26 142 86 135 93 -2 2 -30 -6 -63
-17 -137 -46 -295 27 -357 166 -32 72 -32 190 0 262 42 94 141 167 244 180 38
4 95 -6 163 -30 44 -16 -53 58 -115 87 -52 25 -79 31 -145 34 -49 2 -96 -2
-122 -11z"/>
<path d="M741 718 l-23 -68 -74 0 c-41 0 -74 -3 -74 -7 0 -5 27 -26 60 -48 33
-22 60 -44 60 -48 0 -4 -13 -40 -30 -79 -16 -38 -30 -72 -30 -74 0 -3 30 16
66 40 l67 45 56 -38 c31 -21 62 -41 68 -45 7 -4 -3 29 -22 73 l-34 81 67 47
67 48 -79 5 -79 5 -22 65 -22 65 -22 -67z"/>
</g>
</svg>
