<?xml version="1.0" standalone="no"?>
<!DOCTYPE svg PUBLIC "-//W3C//DTD SVG 20010904//EN"
 "http://www.w3.org/TR/2001/REC-SVG-20010904/DTD/svg10.dtd">
<svg version="1.0" xmlns="http://www.w3.org/2000/svg"
 width="94.000000pt" height="93.000000pt" viewBox="0 0 94.000000 93.000000"
 preserveAspectRatio="xMidYMid meet">
<metadata>
Created by potrace 1.16, written by Peter Selinger 2001-2019
</metadata>
<g transform="translate(0.000000,93.000000) scale(0.100000,-0.100000)"
fill="#000000" stroke="none">
<path d="M52 877 c-22 -23 -22 -27 -22 -413 l0 -391 23 -21 c23 -21 31 -22
265 -22 208 0 242 2 242 15 0 13 -33 15 -238 15 -172 0 -241 3 -250 12 -17 17
-17 769 0 786 9 9 78 12 250 12 l238 0 0 -44 c0 -52 12 -64 70 -68 l45 -3 2
-145 c1 -113 4 -145 15 -145 10 0 13 34 15 154 l2 154 -62 64 -62 63 -256 0
c-254 0 -256 0 -277 -23z"/>
<path d="M325 746 c-76 -34 -94 -116 -41 -191 23 -33 25 -41 12 -43 -20 -4
-21 -32 -2 -32 9 0 16 -12 18 -27 3 -25 7 -28 46 -31 45 -3 72 10 72 36 0 8 8
21 18 28 16 12 16 13 0 19 -24 10 -23 22 7 57 38 45 35 116 -6 157 -17 17 -36
31 -42 31 -7 0 -21 2 -32 5 -11 3 -33 -1 -50 -9z m104 -51 c31 -31 30 -76 -3
-124 -14 -20 -26 -42 -26 -49 0 -7 -13 -12 -30 -12 -16 0 -30 4 -30 8 0 5 -13
29 -30 53 -33 50 -38 84 -14 117 33 47 89 50 133 7z"/>
<path d="M667 434 c-4 -4 -7 -16 -7 -26 0 -24 -23 -33 -50 -18 -19 10 -26 8
-50 -15 -27 -26 -28 -29 -13 -52 17 -26 11 -39 -22 -45 -16 -2 -21 -12 -23
-46 -3 -36 0 -42 16 -42 27 0 49 -27 34 -42 -19 -19 -14 -45 15 -67 24 -19 28
-20 43 -6 23 20 50 9 50 -21 0 -22 4 -24 45 -24 41 0 45 2 45 24 0 30 27 41
50 21 15 -14 19 -13 43 6 29 22 34 48 15 67 -15 15 7 42 34 42 16 0 19 6 16
42 -2 34 -7 44 -23 46 -33 6 -39 19 -22 45 15 23 14 26 -13 52 -24 23 -31 25
-50 15 -28 -15 -48 -7 -52 22 -2 18 -10 24 -38 26 -20 2 -39 0 -43 -4z m57
-47 c7 -30 52 -52 72 -36 8 6 21 9 29 5 13 -5 14 -10 5 -27 -8 -14 -8 -29 -1
-50 6 -18 6 -29 0 -29 -5 0 -9 -7 -9 -15 0 -8 7 -15 15 -15 8 0 15 7 15 15 0
8 7 15 15 15 24 0 17 -30 -10 -40 -29 -11 -43 -53 -25 -76 20 -23 -1 -38 -32
-23 -31 13 -63 0 -73 -31 -8 -26 -32 -26 -40 1 -4 11 -19 26 -33 32 -15 7 -27
19 -27 27 0 8 -7 14 -16 12 -11 -1 -19 7 -23 23 -4 15 -17 30 -31 35 -27 10
-34 40 -10 40 8 0 15 -7 15 -15 0 -8 7 -15 15 -15 8 0 15 7 15 15 0 8 -4 15
-9 15 -6 0 -6 11 0 29 7 21 7 36 -1 50 -9 17 -8 22 5 27 8 4 21 1 29 -5 20
-16 65 6 72 36 8 30 30 30 38 0z"/>
<path d="M665 308 c-51 -27 -61 -89 -22 -133 48 -57 147 -20 147 55 0 42 -9
59 -41 75 -33 18 -57 18 -84 3z"/>
</g>
</svg>
