<?xml version="1.0" standalone="no"?>
<!DOCTYPE svg PUBLIC "-//W3C//DTD SVG 20010904//EN"
 "http://www.w3.org/TR/2001/REC-SVG-20010904/DTD/svg10.dtd">
<svg version="1.0" xmlns="http://www.w3.org/2000/svg"
 width="101.000000pt" height="100.000000pt" viewBox="0 0 101.000000 100.000000"
 preserveAspectRatio="xMidYMid meet">
<metadata>
Created by potrace 1.16, written by Peter Selinger 2001-2019
</metadata>
<g transform="translate(0.000000,100.000000) scale(0.100000,-0.100000)"
fill="#000000" stroke="none">
<path d="M434 966 c-38 -38 -43 -70 -19 -116 19 -37 43 -50 90 -50 47 0 71 13
90 50 24 46 19 78 -19 116 -26 26 -42 34 -71 34 -29 0 -45 -8 -71 -34z m121
-21 c40 -39 28 -93 -26 -113 -45 -17 -98 18 -99 66 0 31 43 72 75 72 14 0 37
-11 50 -25z"/>
<path d="M162 763 c-22 -9 -34 -41 -22 -63 10 -18 21 -20 130 -20 l120 0 0
-91 c0 -68 3 -90 13 -86 8 2 12 32 12 103 l0 99 -123 3 c-92 2 -122 6 -119 15
3 9 85 13 335 15 291 2 332 0 332 -13 0 -13 -19 -15 -119 -15 -99 0 -120 -3
-125 -16 -3 -9 -6 -135 -6 -281 0 -246 -1 -264 -17 -261 -16 3 -19 21 -23 158
l-5 155 -40 0 -40 0 -3 -157 c-2 -149 -4 -158 -22 -158 -18 0 -20 9 -22 157
-2 114 -6 157 -15 161 -10 3 -13 -33 -13 -157 l0 -161 -43 0 c-36 0 -48 -5
-70 -30 -15 -16 -36 -30 -46 -30 -29 0 -71 -39 -71 -66 l0 -24 345 0 345 0 0
24 c0 29 -42 66 -74 66 -13 0 -32 13 -44 30 -19 26 -29 30 -67 30 l-45 0 2
263 3 262 115 3 c94 2 117 6 128 19 16 23 15 30 -8 53 -19 19 -33 20 -352 19
-183 0 -339 -3 -346 -6z m648 -718 c11 -13 -24 -15 -306 -15 -283 1 -317 2
-300 15 30 22 588 22 606 0z"/>
<path d="M86 515 c-47 -75 -86 -145 -86 -156 0 -12 15 -36 34 -55 l34 -34 104
0 c118 0 144 10 172 61 l19 36 -88 141 c-49 78 -92 142 -96 142 -4 0 -46 -61
-93 -135z m234 -169 c0 -32 -41 -46 -138 -46 -98 0 -125 8 -142 40 -10 20 -7
20 135 20 120 0 145 -3 145 -14z"/>
<path d="M736 510 c-84 -135 -87 -142 -76 -171 25 -59 51 -69 172 -69 l110 0
34 34 c19 19 34 43 34 54 0 20 -161 284 -177 289 -5 2 -49 -60 -97 -137z m234
-170 c-17 -32 -44 -40 -142 -40 -97 0 -138 14 -138 46 0 11 25 14 145 14 142
0 145 0 135 -20z"/>
</g>
</svg>
