<?xml version="1.0" standalone="no"?>
<!DOCTYPE svg PUBLIC "-//W3C//DTD SVG 20010904//EN"
 "http://www.w3.org/TR/2001/REC-SVG-20010904/DTD/svg10.dtd">
<svg version="1.0" xmlns="http://www.w3.org/2000/svg"
 width="104.000000pt" height="104.000000pt" viewBox="0 0 104.000000 104.000000"
 preserveAspectRatio="xMidYMid meet">

<g transform="translate(0.000000,104.000000) scale(0.100000,-0.100000)"
fill="#000000" stroke="none">
<path d="M335 877 l-180 -83 0 -204 c0 -200 1 -206 26 -260 38 -81 107 -144
218 -198 52 -25 106 -45 121 -45 45 0 210 86 263 138 27 25 61 72 75 103 26
56 27 61 27 262 l0 204 -180 83 c-99 45 -182 82 -185 82 -3 0 -86 -37 -185
-82z m340 -56 l150 -69 3 -143 c4 -166 -7 -229 -49 -293 -34 -51 -117 -111
-203 -146 l-57 -23 -65 28 c-105 45 -177 103 -210 172 -29 57 -29 61 -29 232
l0 173 150 69 c83 37 152 68 155 68 3 0 73 -31 155 -68z"/>
<path d="M454 750 c-33 -22 -53 -57 -58 -105 -2 -18 -11 -31 -24 -36 -34 -13
-42 -42 -42 -152 0 -90 3 -108 21 -131 l20 -26 149 0 149 0 20 26 c18 23 21
41 21 131 0 111 -8 139 -44 152 -17 7 -22 17 -23 44 -3 94 -109 148 -189 97z
m114 -68 c6 -9 12 -28 12 -44 0 -28 -1 -28 -60 -28 -59 0 -60 0 -60 28 0 63
70 92 108 44z m74 -227 l0 -90 -120 -3 -121 -3 -3 92 c-2 50 -1 93 1 95 3 3
58 3 124 2 l119 -3 0 -90z"/>
<path d="M502 481 c-23 -14 -10 -46 18 -46 16 0 26 6 28 19 3 16 -12 36 -28
36 -3 0 -11 -4 -18 -9z"/>
</g>
</svg>
