<?xml version="1.0" standalone="no"?>
<!DOCTYPE svg PUBLIC "-//W3C//DTD SVG 20010904//EN"
 "http://www.w3.org/TR/2001/REC-SVG-20010904/DTD/svg10.dtd">
<svg version="1.0" xmlns="http://www.w3.org/2000/svg"
 width="98.000000pt" height="96.000000pt" viewBox="0 0 98.000000 96.000000"
 preserveAspectRatio="xMidYMid meet">
<metadata>
Created by potrace 1.16, written by Peter Selinger 2001-2019
</metadata>
<g transform="translate(0.000000,96.000000) scale(0.100000,-0.100000)"
fill="#000000" stroke="none">
<path d="M465 951 c-88 -23 -169 -92 -206 -176 -43 -95 -23 -232 44 -303 l21
-23 -46 -45 c-40 -41 -47 -45 -66 -33 -18 11 -27 6 -91 -51 l-72 -64 127 -127
c107 -107 131 -126 143 -117 9 7 42 37 73 67 l58 55 -27 28 c-22 23 -24 30
-13 43 10 12 36 15 119 15 79 0 116 5 143 18 48 22 247 218 255 251 8 33 -15
73 -54 91 -31 14 -33 17 -33 76 0 120 -60 218 -165 270 -59 28 -155 40 -210
25z m159 -63 c25 -8 59 -31 88 -59 89 -89 100 -224 23 -307 l-32 -36 -28 22
c-18 14 -42 22 -66 22 -44 0 -48 11 -19 40 41 41 20 95 -44 120 -22 8 -26 14
-18 22 9 9 15 9 24 0 15 -15 58 -16 58 0 0 26 -45 78 -68 78 -32 0 -71 -48
-72 -87 0 -32 37 -73 66 -73 8 0 14 -7 14 -15 0 -17 -16 -20 -25 -5 -3 6 -17
10 -31 10 -30 0 -33 -29 -4 -55 29 -26 25 -35 -18 -35 -20 0 -54 -9 -74 -19
-34 -19 -37 -19 -51 -3 -47 54 -65 136 -47 213 10 42 24 64 65 106 29 28 68
56 86 61 48 14 125 14 173 0z m243 -374 c7 -18 -162 -195 -209 -220 -19 -10
-61 -14 -139 -14 -107 0 -114 -1 -139 -25 l-26 -25 -42 43 -42 43 79 77 79 78
109 -3 c100 -3 108 -4 108 -23 0 -18 -8 -20 -82 -23 l-83 -3 0 -29 0 -30 86 0
87 0 86 85 c85 84 116 100 128 69z m-507 -376 c0 -4 -12 -19 -27 -33 l-28 -25
-85 85 -84 84 29 31 29 30 83 -82 c46 -45 83 -86 83 -90z"/>
</g>
</svg>
