<?xml version="1.0" standalone="no"?>
<!DOCTYPE svg PUBLIC "-//W3C//DTD SVG 20010904//EN"
 "http://www.w3.org/TR/2001/REC-SVG-20010904/DTD/svg10.dtd">
<svg version="1.0" xmlns="http://www.w3.org/2000/svg"
 width="128.000000pt" height="124.000000pt" viewBox="0 0 128.000000 124.000000"
 preserveAspectRatio="xMidYMid meet">
<metadata>
Created by potrace 1.16, written by Peter Selinger 2001-2019
</metadata>
<g transform="translate(0.000000,124.000000) scale(0.100000,-0.100000)"
fill="#000000" stroke="none">
<path d="M447 1064 c-4 -4 -7 -15 -7 -25 0 -23 -25 -31 -55 -17 -21 10 -29 9
-43 -5 -14 -15 -15 -21 -4 -38 18 -29 6 -59 -24 -59 -20 0 -24 -5 -24 -30 0
-23 4 -30 20 -30 27 0 44 -34 28 -59 -10 -17 -9 -23 6 -40 16 -18 21 -19 38
-7 24 17 58 9 58 -14 0 -10 7 -23 15 -30 19 -16 55 -3 55 20 0 29 37 46 58 27
32 -29 72 19 41 50 -16 16 5 51 33 55 17 2 23 10 23 28 0 18 -6 26 -23 28 -32
5 -48 39 -29 60 29 31 -19 72 -49 42 -15 -15 -53 0 -56 24 -3 21 -45 35 -61
20z m45 -36 c4 -27 53 -46 79 -30 22 14 31 5 17 -17 -16 -26 3 -75 30 -79 27
-4 29 -22 3 -22 -27 0 -49 -55 -32 -82 16 -25 9 -33 -16 -17 -28 17 -77 -1
-81 -29 -4 -28 -32 -29 -32 -2 0 27 -47 46 -73 30 -26 -16 -42 -2 -23 19 15
16 15 21 0 49 -9 19 -23 32 -35 32 -10 0 -19 5 -19 10 0 6 9 10 20 10 12 0 26
12 35 31 15 28 15 32 1 48 -21 23 -10 33 20 19 32 -15 74 4 74 32 0 27 28 26
32 -2z"/>
<path d="M433 975 c-17 -7 -36 -22 -42 -34 -14 -25 -14 -76 -1 -102 16 -30 68
-52 105 -45 92 18 107 145 21 181 -42 18 -43 18 -83 0z m107 -45 c37 -69 -23
-136 -95 -106 -37 16 -52 48 -41 92 13 52 110 62 136 14z"/>
<path d="M767 894 c-4 -4 -7 -15 -7 -25 0 -10 -9 -23 -21 -29 -16 -9 -24 -8
-39 5 -15 14 -21 14 -39 3 -23 -14 -27 -38 -10 -55 18 -18 1 -53 -26 -53 -15
0 -26 -7 -30 -20 -8 -25 10 -50 36 -50 23 0 33 -33 17 -59 -10 -17 -9 -23 7
-41 17 -19 20 -19 42 -5 29 19 60 6 65 -27 2 -18 9 -23 33 -23 24 0 31 5 33
23 5 34 39 48 63 26 19 -17 21 -17 42 4 19 19 20 25 9 43 -17 27 -7 57 21 61
17 2 22 10 22 33 0 23 -5 31 -22 33 -27 4 -38 34 -23 63 10 18 9 25 -9 42 -19
20 -21 20 -40 3 -24 -22 -58 -8 -63 26 -2 16 -11 24 -28 26 -14 2 -29 0 -33
-4z m41 -42 c4 -28 66 -50 88 -31 20 16 31 3 17 -21 -18 -28 4 -80 34 -80 14
0 23 -6 23 -15 0 -9 -9 -15 -24 -15 -31 0 -52 -51 -34 -80 16 -25 5 -35 -19
-19 -27 17 -76 -1 -83 -30 -3 -12 -9 -22 -15 -22 -5 0 -12 10 -15 22 -7 29
-56 47 -82 30 -26 -16 -43 -3 -24 18 23 25 1 81 -31 81 -14 0 -23 6 -23 15 0
8 9 15 20 15 12 0 26 12 35 31 15 28 15 32 0 49 -19 21 -2 39 20 20 11 -9 23
-9 50 0 28 9 35 17 35 37 0 30 24 26 28 -5z"/>
<path d="M754 800 c-12 -4 -31 -21 -43 -36 -62 -79 27 -190 122 -150 87 36 87
146 1 182 -38 16 -50 16 -80 4z m98 -37 c25 -22 30 -60 14 -92 -34 -65 -135
-52 -151 19 -17 75 78 126 137 73z"/>
<path d="M884 499 l-52 -51 -21 21 c-18 18 -33 21 -117 21 -86 0 -101 3 -144
27 -46 26 -50 26 -91 13 -24 -7 -48 -12 -54 -11 -12 4 -135 -61 -135 -71 0
-18 162 -278 173 -278 7 1 37 16 67 34 42 25 54 38 53 55 -3 20 1 21 110 22
61 0 120 3 129 7 9 4 60 47 112 95 100 92 114 118 80 151 -27 28 -57 18 -110
-35z m100 8 c9 -16 -2 -30 -84 -107 -106 -99 -128 -107 -243 -95 -34 4 -73 2
-88 -3 -24 -10 -28 -6 -82 85 -31 52 -57 98 -57 103 0 5 16 14 35 20 32 11 40
9 83 -16 41 -25 59 -29 149 -32 100 -4 121 -12 104 -40 -4 -6 -42 -12 -86 -14
-103 -4 -104 -22 -2 -26 l79 -3 76 76 c42 41 83 74 91 73 8 -2 19 -11 25 -21z
m-505 -150 c35 -59 62 -109 60 -111 -27 -20 -85 -46 -94 -43 -10 5 -126 193
-139 227 -4 10 9 24 41 42 43 24 48 25 58 10 6 -10 40 -66 74 -125z"/>
</g>
</svg>
