<?xml version="1.0" standalone="no"?>
<!DOCTYPE svg PUBLIC "-//W3C//DTD SVG 20010904//EN"
 "http://www.w3.org/TR/2001/REC-SVG-20010904/DTD/svg10.dtd">
<svg version="1.0" xmlns="http://www.w3.org/2000/svg"
 width="118.000000pt" height="118.000000pt" viewBox="0 0 118.000000 118.000000"
 preserveAspectRatio="xMidYMid meet">

<g transform="translate(0.000000,118.000000) scale(0.100000,-0.100000)"
fill="#000000" stroke="none">
<path d="M538 974 c-31 -16 -58 -61 -58 -96 0 -33 41 -100 71 -117 51 -29 119
15 139 90 15 54 -7 105 -54 124 -44 19 -63 18 -98 -1z"/>
<path d="M330 930 c-24 -24 -25 -51 -5 -90 21 -42 60 -49 90 -19 35 36 40 70
15 102 -26 33 -71 36 -100 7z"/>
<path d="M760 932 c-28 -23 -29 -65 -3 -100 29 -38 55 -39 87 -2 31 38 33 59
5 94 -24 30 -57 34 -89 8z"/>
<path d="M286 757 c-42 -42 -32 -89 28 -126 43 -27 64 -27 75 2 11 28 49 63
79 72 25 7 28 23 9 49 -11 15 -31 20 -90 24 -71 4 -77 3 -101 -21z"/>
<path d="M716 759 c-32 -25 -33 -45 -3 -54 26 -8 77 -54 77 -69 0 -6 4 -17 9
-25 8 -12 19 -8 65 22 48 32 56 42 56 68 0 18 -9 39 -25 54 -21 21 -33 25 -88
25 -50 0 -70 -5 -91 -21z"/>
<path d="M457 632 c-10 -11 -17 -36 -17 -60 0 -38 4 -45 43 -73 23 -17 57 -38
75 -47 32 -16 35 -15 80 8 80 43 102 67 102 111 0 68 -21 79 -153 79 -98 0
-116 -3 -130 -18z"/>
<path d="M132 598 c-17 -17 -15 -143 3 -182 10 -21 45 -52 105 -91 86 -58 89
-61 90 -97 l0 -38 96 0 97 0 -5 76 c-6 86 -19 109 -91 164 -73 56 -116 76
-135 63 -33 -20 -24 -41 37 -83 60 -40 78 -70 43 -70 -11 0 -52 24 -93 53
l-74 53 -5 70 c-3 38 -9 75 -14 82 -9 15 -38 16 -54 0z"/>
<path d="M993 598 c-4 -7 -10 -44 -13 -83 l-5 -70 -84 -57 c-63 -43 -88 -55
-97 -47 -20 16 -8 32 52 68 60 36 73 53 54 76 -20 24 -40 18 -121 -34 -93 -60
-119 -103 -119 -199 l0 -62 95 0 95 0 0 38 c0 36 4 40 81 92 118 80 129 95
129 185 0 40 -3 80 -6 89 -7 19 -49 21 -61 4z"/>
</g>
</svg>
