<?xml version="1.0" standalone="no"?>
<!DOCTYPE svg PUBLIC "-//W3C//DTD SVG 20010904//EN"
 "http://www.w3.org/TR/2001/REC-SVG-20010904/DTD/svg10.dtd">
<svg version="1.0" xmlns="http://www.w3.org/2000/svg"
 width="100.000000pt" height="99.000000pt" viewBox="0 0 100.000000 99.000000"
 preserveAspectRatio="xMidYMid meet">
<metadata>
Created by potrace 1.16, written by Peter Selinger 2001-2019
</metadata>
<g transform="translate(0.000000,99.000000) scale(0.100000,-0.100000)"
fill="#000000" stroke="none">
<path d="M432 974 c-70 -36 -106 -117 -83 -187 43 -130 218 -148 288 -30 58
99 -7 220 -124 230 -32 2 -59 -2 -81 -13z m135 -34 c69 -42 82 -134 27 -191
-55 -57 -139 -56 -188 2 -35 41 -42 75 -25 123 27 77 117 109 186 66z"/>
<path d="M651 725 c-45 -49 -45 -49 -31 -75 15 -28 -12 -39 -66 -27 -32 8 -54
7 -84 -3 -49 -16 -95 -1 -86 28 8 26 -85 116 -111 108 -10 -3 -50 -37 -88 -76
-49 -50 -66 -73 -59 -80 8 -8 33 9 85 59 l74 69 32 -31 c18 -17 32 -36 32 -41
-1 -6 -51 -58 -111 -116 l-108 -104 -37 37 -37 37 28 29 c16 16 23 31 18 35
-14 8 -72 -42 -72 -62 0 -25 81 -102 107 -102 14 0 29 -10 39 -27 9 -16 25
-40 35 -54 13 -19 16 -37 12 -67 -5 -35 -2 -42 21 -57 14 -10 26 -25 26 -35 0
-20 31 -50 52 -50 9 0 23 -11 32 -25 9 -14 23 -25 31 -25 8 0 21 -13 30 -30
17 -32 59 -49 84 -33 10 6 25 6 43 -1 23 -8 32 -7 56 11 17 13 38 20 49 17 12
-4 31 4 50 20 17 14 40 26 50 26 24 0 53 30 53 55 0 10 11 28 25 41 32 29 32
55 -1 93 -19 23 -23 35 -16 44 6 7 12 35 14 62 3 49 4 50 32 47 23 -3 38 6 72
39 24 24 44 50 44 59 0 18 -140 160 -158 160 -22 0 -13 -14 60 -87 l73 -73
-38 -37 -37 -38 -112 113 -113 112 37 37 37 37 24 -22 c27 -25 37 -28 37 -9 0
20 -43 57 -67 57 -11 0 -39 -20 -62 -45z m-276 -125 c3 -5 15 -10 26 -10 23 0
24 -8 4 -34 -21 -28 -19 -52 7 -70 29 -21 77 -20 107 0 22 16 24 15 55 -15 34
-33 56 -40 56 -17 0 14 -76 86 -90 86 -4 0 -15 -9 -25 -20 -20 -22 -79 -28
-91 -9 -3 6 12 30 34 52 l41 41 53 -11 c45 -9 57 -8 81 5 l27 17 78 -78 c69
-69 76 -79 64 -97 -6 -11 -12 -40 -12 -64 0 -25 -4 -47 -8 -50 -5 -3 -31 17
-57 44 -27 28 -55 50 -62 50 -29 0 -9 -31 62 -95 86 -77 102 -99 84 -121 -17
-21 -25 -18 -73 26 -41 38 -66 50 -66 32 0 -4 23 -30 50 -57 33 -33 50 -57 48
-70 -6 -38 -38 -29 -93 25 -33 32 -58 50 -65 45 -8 -5 3 -23 35 -55 48 -49 54
-73 20 -86 -19 -8 -49 18 -81 69 -14 20 -31 37 -39 37 -9 0 -20 11 -25 25 -5
14 -20 30 -34 36 -13 6 -29 22 -35 35 -6 14 -22 29 -36 34 -14 5 -25 16 -25
24 0 40 -68 51 -104 17 -12 -11 -25 -21 -29 -21 -10 0 -79 112 -73 119 29 32
173 171 178 171 4 0 10 -4 13 -10z"/>
</g>
</svg>
