<?xml version="1.0" standalone="no"?>
<!DOCTYPE svg PUBLIC "-//W3C//DTD SVG 20010904//EN"
 "http://www.w3.org/TR/2001/REC-SVG-20010904/DTD/svg10.dtd">
<svg version="1.0" xmlns="http://www.w3.org/2000/svg"
 width="100.000000pt" height="98.000000pt" viewBox="0 0 100.000000 98.000000"
 preserveAspectRatio="xMidYMid meet">

<g transform="translate(0.000000,98.000000) scale(0.100000,-0.100000)"
fill="#000000" stroke="none">
<path d="M365 916 c-82 -35 -134 -75 -177 -137 -47 -68 -63 -125 -63 -219 0
-81 27 -167 65 -208 11 -12 20 -23 20 -25 0 -3 -25 -46 -55 -97 -30 -51 -52
-96 -50 -101 3 -4 29 -5 58 -2 l53 5 19 -43 c11 -23 25 -44 32 -46 6 -2 34 36
63 86 l51 89 32 -9 c41 -12 133 -12 174 0 l32 9 51 -89 c29 -50 57 -88 63 -86
7 2 21 23 32 46 l19 43 53 -5 c29 -3 55 -2 58 2 2 5 -20 50 -50 101 -56 93
-63 110 -46 110 22 0 74 134 79 200 11 161 -71 296 -226 368 -84 39 -204 42
-287 8z m278 -36 c163 -78 238 -243 187 -411 -19 -63 -30 -81 -83 -134 -83
-83 -149 -109 -262 -103 -99 5 -162 32 -229 96 -72 70 -100 137 -100 242 -1
70 3 94 23 134 44 88 119 157 211 190 65 23 189 17 253 -14z m-302 -652 c11
-4 -57 -128 -71 -128 -4 0 -13 13 -20 29 -10 26 -18 30 -55 33 l-43 3 40 67
40 67 49 -34 c27 -18 54 -35 60 -37z m468 1 l39 -64 -44 -3 c-39 -3 -44 -6
-56 -38 -6 -18 -14 -34 -18 -34 -12 1 -80 135 -70 138 6 2 32 19 58 37 26 18
48 32 50 30 1 -1 20 -31 41 -66z"/>
<path d="M426 839 c-54 -13 -98 -42 -144 -95 -112 -127 -76 -329 73 -414 48
-28 70 -33 165 -41 155 -14 190 7 233 138 39 117 41 142 21 214 -15 53 -27 73
-74 121 -36 36 -71 60 -96 67 -57 17 -134 21 -178 10z m150 -34 c105 -31 178
-128 175 -233 -2 -92 -6 -97 -47 -57 -19 19 -41 35 -49 35 -8 0 -21 16 -29 35
-11 27 -23 37 -46 42 -24 4 -29 9 -24 22 21 47 16 80 -14 111 -19 18 -41 30
-57 30 -33 0 -81 -24 -89 -45 -10 -26 -7 -83 4 -90 18 -11 11 -25 -13 -25 -45
0 -62 -33 -62 -124 l0 -81 67 -3 67 -3 12 -37 c6 -20 16 -43 22 -49 15 -20
-41 -16 -89 6 -173 79 -211 296 -72 416 72 61 152 78 244 50z m-56 -65 c11
-11 20 -29 20 -40 0 -26 -34 -60 -62 -60 -50 0 -76 63 -41 102 21 24 58 23 83
-2z m68 -152 c19 -19 15 -24 -28 -37 -38 -11 -79 -52 -93 -93 -5 -14 -18 -18
-62 -18 l-55 0 0 61 c0 97 3 99 123 99 67 0 107 -4 115 -12z m94 -94 c40 -39
40 -101 -1 -146 -25 -28 -36 -33 -75 -33 -36 0 -51 6 -75 29 -54 52 -38 148
29 175 38 16 90 5 122 -25z"/>
<path d="M612 438 c-31 -31 -34 -32 -46 -15 -7 9 -16 17 -20 17 -13 0 -5 -28
13 -51 l20 -24 40 40 c38 36 52 65 33 65 -4 0 -22 -15 -40 -32z"/>
</g>
</svg>
