<?xml version="1.0" standalone="no"?>
<!DOCTYPE svg PUBLIC "-//W3C//DTD SVG 20010904//EN"
 "http://www.w3.org/TR/2001/REC-SVG-20010904/DTD/svg10.dtd">
<svg version="1.0" xmlns="http://www.w3.org/2000/svg"
 width="104.000000pt" height="108.000000pt" viewBox="0 0 104.000000 108.000000"
 preserveAspectRatio="xMidYMid meet">

<g transform="translate(0.000000,108.000000) scale(0.100000,-0.100000)"
fill="#000000" stroke="none">
<path d="M809 1066 c-20 -7 -100 -56 -178 -109 l-141 -97 -58 24 c-41 17 -62
21 -75 15 -21 -12 -13 -30 37 -78 28 -27 33 -38 24 -48 -24 -29 5 -25 89 13
47 21 90 41 96 43 5 2 1 -11 -8 -29 -9 -17 -14 -34 -11 -37 14 -14 50 15 97
78 36 49 77 88 131 126 84 59 104 83 86 101 -15 15 -44 14 -89 -2z"/>
<path d="M290 704 c-141 -71 -240 -203 -248 -330 -5 -79 11 -126 60 -180 52
-57 123 -86 223 -92 56 -3 86 -9 100 -21 98 -84 249 -103 368 -46 65 30 149
116 179 182 18 40 22 66 23 153 0 93 -3 111 -26 160 -37 78 -87 131 -161 171
-60 32 -68 34 -163 34 -86 0 -106 -3 -145 -24 -100 -53 -162 -127 -195 -230
-25 -77 -17 -188 18 -265 l27 -58 -38 7 c-46 8 -120 40 -145 63 -116 105 -37
327 168 467 30 21 55 40 55 42 0 11 -36 -1 -100 -33z m209 -130 c-19 -56 -23
-61 -67 -76 -25 -10 -48 -15 -50 -13 -9 9 42 76 85 115 25 22 48 39 49 37 2
-2 -6 -30 -17 -63z m184 48 c9 -10 23 -34 32 -55 l15 -37 -84 0 -84 0 11 31
c26 69 77 97 110 61z m162 -38 c33 -33 70 -92 63 -99 -2 -2 -24 3 -50 12 -41
15 -47 22 -62 67 -10 28 -20 57 -23 64 -8 22 31 -2 72 -44z m-97 -211 l3 -81
-57 -8 c-32 -4 -78 -3 -103 2 l-46 9 -3 69 c-2 38 -1 75 2 83 4 11 27 13 103
11 l98 -3 3 -82z m-278 -3 c0 -33 -2 -60 -5 -60 -13 0 -63 30 -75 45 -13 15
-10 21 18 46 50 45 62 39 62 -31z m401 43 c50 -30 46 -58 -12 -89 -16 -8 -29
-14 -31 -14 -2 0 -3 27 -3 60 0 33 4 60 8 60 5 0 22 -8 38 -17z m-410 -176
c15 -5 63 -116 54 -125 -10 -10 -79 53 -106 96 -37 58 -36 65 4 48 17 -8 39
-17 48 -19z m426 -24 c-26 -42 -91 -103 -108 -103 -6 0 -9 3 -7 8 2 4 12 30
23 58 17 46 25 54 64 71 26 11 47 16 49 12 2 -4 -8 -25 -21 -46z m-168 -31
c-11 -33 -55 -82 -73 -82 -22 0 -76 70 -76 99 0 7 30 11 79 11 l80 0 -10 -28z"/>
</g>
</svg>
