<?xml version="1.0" standalone="no"?>
<!DOCTYPE svg PUBLIC "-//W3C//DTD SVG 20010904//EN"
 "http://www.w3.org/TR/2001/REC-SVG-20010904/DTD/svg10.dtd">
<svg version="1.0" xmlns="http://www.w3.org/2000/svg"
 width="126.000000pt" height="112.000000pt" viewBox="0 0 126.000000 112.000000"
 preserveAspectRatio="xMidYMid meet">

<g transform="translate(0.000000,112.000000) scale(0.100000,-0.100000)"
fill="#000000" stroke="none">
<path d="M654 996 c-6 -16 20 -83 41 -106 8 -8 15 -42 17 -74 l3 -59 41 -12
41 -12 -24 36 c-36 53 -17 119 41 137 31 9 56 34 56 56 0 26 -19 22 -42 -8
-45 -57 -100 -50 -137 17 -24 43 -29 46 -37 25z"/>
<path d="M740 985 c-18 -21 -3 -55 25 -55 15 0 26 7 30 20 7 23 -10 50 -30 50
-7 0 -18 -7 -25 -15z"/>
<path d="M439 974 c-9 -11 -10 -20 -2 -32 15 -24 44 -27 59 -7 28 38 -27 75
-57 39z"/>
<path d="M526 939 c-33 -39 -34 -82 -1 -114 47 -48 114 -27 134 42 25 87 -75
142 -133 72z"/>
<path d="M360 932 c0 -10 11 -29 25 -42 14 -13 25 -29 25 -35 0 -6 21 -21 46
-34 l47 -22 -7 32 c-3 17 -6 40 -6 50 0 13 -7 19 -22 19 -12 0 -41 11 -65 25
-40 24 -43 24 -43 7z"/>
<path d="M1005 865 c-56 -126 -115 -170 -260 -196 -78 -14 -95 -23 -95 -50 0
-21 52 -39 113 -39 l37 0 0 -50 c0 -27 -7 -69 -15 -94 -8 -24 -12 -51 -9 -60
10 -26 -13 -69 -52 -95 -38 -26 -36 -33 15 -50 87 -29 182 0 228 70 28 42 28
45 29 195 l0 152 38 82 c29 62 40 99 44 151 4 64 3 69 -15 69 -15 0 -29 -20
-58 -85z"/>
<path d="M262 928 c-31 -31 -12 -68 90 -174 64 -68 68 -74 68 -119 l0 -46 34
36 c29 30 38 35 54 26 44 -24 25 -96 -47 -174 -41 -44 -53 -74 -27 -64 7 3 30
-5 49 -19 20 -13 38 -24 41 -24 4 0 6 16 6 35 0 46 37 85 80 85 l30 0 0 85 c0
94 7 105 72 105 18 0 51 5 73 12 l40 11 -33 14 c-18 7 -89 25 -156 38 -158 31
-201 51 -281 125 -69 64 -74 67 -93 48z"/>
<path d="M798 886 c-45 -34 -41 -100 7 -132 33 -21 69 -11 98 28 48 64 -41
153 -105 104z"/>
<path d="M121 666 c-23 -28 27 -167 73 -206 11 -9 16 -31 16 -75 l0 -63 56
-51 c31 -29 69 -58 84 -66 l27 -14 8 118 7 119 35 33 c47 45 93 117 93 146 0
46 -28 36 -94 -32 l-64 -68 -51 5 c-61 6 -89 29 -133 105 -35 62 -42 68 -57
49z"/>
<path d="M286 649 c-46 -36 -23 -119 34 -119 29 0 60 35 60 68 0 33 -8 45 -37
61 -28 14 -26 15 -57 -10z"/>
<path d="M567 452 c-22 -24 -21 -65 1 -85 36 -33 85 -15 97 35 13 53 -61 91
-98 50z"/>
<path d="M435 390 c-11 -18 4 -46 45 -84 39 -35 40 -39 40 -100 0 -72 4 -76
93 -76 l47 0 0 65 c0 61 2 65 29 79 36 19 85 76 74 87 -5 5 -32 0 -61 -11 -82
-31 -140 -27 -201 15 -56 39 -57 39 -66 25z"/>
</g>
</svg>
