<?xml version="1.0" standalone="no"?>
<!DOCTYPE svg PUBLIC "-//W3C//DTD SVG 20010904//EN"
 "http://www.w3.org/TR/2001/REC-SVG-20010904/DTD/svg10.dtd">
<svg version="1.0" xmlns="http://www.w3.org/2000/svg"
 width="92.000000pt" height="92.000000pt" viewBox="0 0 92.000000 92.000000"
 preserveAspectRatio="xMidYMid meet">
<metadata>
Created by potrace 1.16, written by Peter Selinger 2001-2019
</metadata>
<g transform="translate(0.000000,92.000000) scale(0.100000,-0.100000)"
fill="#000000" stroke="none">
<path d="M500 828 c-150 -95 -165 -117 -113 -158 15 -12 32 -36 38 -53 l10
-32 -199 -120 c-109 -66 -208 -132 -219 -147 -23 -31 -18 -67 15 -98 41 -38
67 -28 277 113 l198 133 27 -22 c14 -13 26 -32 26 -44 0 -22 33 -60 53 -60 21
0 237 140 248 161 14 27 3 54 -26 67 -14 6 -25 19 -25 28 0 26 -60 131 -102
178 -21 24 -38 53 -38 63 0 25 -30 53 -56 52 -10 0 -62 -27 -114 -61z m204
-107 c36 -48 75 -126 76 -148 0 -11 -169 -123 -187 -123 -29 0 -143 163 -143
206 0 8 41 41 92 73 105 68 107 68 162 -8z m-238 -188 c7 -10 14 -23 14 -29 0
-6 -85 -68 -188 -138 -194 -131 -221 -143 -246 -104 -8 13 -8 23 0 35 8 14
382 247 403 252 2 1 10 -7 17 -16z"/>
<path d="M456 88 c-9 -12 -16 -37 -16 -55 l0 -33 240 0 240 0 0 38 c0 70 -8
72 -243 72 -201 0 -206 0 -221 -22z"/>
</g>
</svg>
