<?xml version="1.0" standalone="no"?>
<!DOCTYPE svg PUBLIC "-//W3C//DTD SVG 20010904//EN"
 "http://www.w3.org/TR/2001/REC-SVG-20010904/DTD/svg10.dtd">
<svg version="1.0" xmlns="http://www.w3.org/2000/svg"
 width="90.000000pt" height="89.000000pt" viewBox="0 0 90.000000 89.000000"
 preserveAspectRatio="xMidYMid meet">
<metadata>
Created by potrace 1.16, written by Peter Selinger 2001-2019
</metadata>
<g transform="translate(0.000000,89.000000) scale(0.100000,-0.100000)"
fill="#000000" stroke="none">
<path d="M344 875 c-148 -32 -231 -119 -242 -253 -4 -60 -10 -75 -53 -138 -27
-39 -49 -80 -49 -91 0 -28 45 -63 81 -63 28 0 29 -1 29 -54 0 -78 27 -107 103
-114 31 -2 57 -5 57 -7 0 -1 -9 -28 -20 -60 -35 -103 -52 -95 200 -95 l221 0
-3 72 c-2 60 -6 73 -20 76 -15 3 -18 -5 -18 -52 l0 -56 -179 0 -180 0 25 72
c13 39 24 75 24 80 0 4 -33 8 -74 8 -91 0 -99 8 -100 98 l-1 67 -50 5 c-34 3
-51 10 -53 20 -1 9 19 47 46 86 46 65 50 75 54 141 3 60 9 80 33 115 42 60
134 106 235 116 60 6 75 11 78 25 3 14 -4 17 -40 16 -24 0 -71 -7 -104 -14z"/>
<path d="M589 877 c-57 -21 -97 -54 -126 -105 -23 -39 -28 -59 -28 -112 1 -76
23 -126 80 -180 36 -34 65 -79 65 -100 0 -5 -9 -10 -20 -10 -26 0 -26 -30 -1
-37 14 -3 21 -15 23 -37 l3 -31 68 -3 c68 -3 83 -13 48 -32 -25 -13 -221 -13
-221 0 0 5 -9 14 -21 20 -49 26 -100 -22 -75 -71 16 -32 65 -38 91 -9 16 18
30 20 131 20 l112 0 26 31 c18 21 26 42 26 69 0 29 4 39 20 43 27 7 26 37 -1
37 -19 0 -21 4 -15 32 3 17 17 45 31 62 14 17 36 45 49 61 80 98 46 263 -68
330 -55 32 -143 42 -197 22z m183 -56 c50 -35 80 -84 86 -140 6 -66 -12 -113
-64 -172 -27 -31 -48 -66 -55 -94 -8 -33 -16 -45 -30 -45 -17 0 -19 9 -19 110
0 90 -3 110 -15 110 -11 0 -15 -21 -17 -107 -3 -92 -5 -108 -20 -111 -12 -2
-20 8 -29 37 -7 25 -32 61 -61 91 -27 28 -56 66 -64 85 -38 92 4 196 101 249
44 24 142 17 187 -13z"/>
<path d="M212 674 c-26 -18 -30 -65 -7 -84 22 -19 66 -15 82 6 14 18 15 18 34
-5 11 -13 19 -38 19 -58 0 -27 4 -34 18 -31 14 3 16 12 14 48 -2 37 -8 50 -35
73 -17 15 -39 34 -47 41 -26 23 -54 27 -78 10z"/>
<path d="M172 504 c-12 -8 -22 -25 -22 -38 0 -46 61 -73 94 -41 24 24 140 21
166 -5 11 -11 20 -27 20 -35 0 -8 9 -15 20 -15 24 0 25 11 5 50 -24 47 -52 60
-126 60 -53 0 -69 4 -84 20 -22 24 -43 25 -73 4z"/>
<path d="M254 382 c-45 -29 -30 -95 22 -100 19 -2 36 3 44 12 9 12 32 16 90
16 80 0 97 -8 113 -52 4 -10 13 -18 22 -18 26 0 16 41 -19 76 -33 33 -37 34
-110 34 -63 0 -80 4 -96 20 -21 21 -47 25 -66 12z"/>
</g>
</svg>
