<?xml version="1.0" standalone="no"?>
<!DOCTYPE svg PUBLIC "-//W3C//DTD SVG 20010904//EN"
 "http://www.w3.org/TR/2001/REC-SVG-20010904/DTD/svg10.dtd">
<svg version="1.0" xmlns="http://www.w3.org/2000/svg"
 width="94.000000pt" height="92.000000pt" viewBox="0 0 94.000000 92.000000"
 preserveAspectRatio="xMidYMid meet">

<g transform="translate(0.000000,92.000000) scale(0.100000,-0.100000)"
fill="#000000" stroke="none">
<path d="M403 878 c-6 -7 -14 -23 -17 -34 -9 -28 -62 -52 -79 -35 -22 22 -62
12 -100 -27 -40 -41 -44 -57 -23 -85 21 -28 0 -74 -40 -87 -37 -13 -44 -26
-44 -84 0 -47 19 -72 59 -78 36 -5 37 18 1 30 -27 10 -30 15 -30 52 0 37 3 42
35 56 24 10 40 25 50 50 13 32 13 39 -1 66 -16 30 -15 31 15 61 29 30 32 31
65 19 48 -18 102 5 117 48 10 28 14 30 60 30 47 0 50 -2 55 -29 9 -42 71 -67
120 -49 33 12 36 11 65 -19 30 -30 31 -31 15 -61 -15 -29 -15 -34 1 -67 11
-23 30 -42 50 -50 30 -13 33 -18 33 -55 0 -37 -3 -42 -30 -52 -36 -12 -35 -35
1 -30 42 6 59 31 59 83 0 51 -15 75 -54 85 -30 7 -49 57 -30 81 21 29 17 46
-24 86 -39 38 -77 48 -99 26 -19 -19 -68 7 -84 44 -13 30 -17 32 -75 35 -41 2
-64 -1 -71 -10z"/>
<path d="M395 701 c-103 -47 -146 -171 -90 -258 23 -35 40 -15 20 23 -22 43
-19 105 8 144 38 57 71 75 137 75 66 0 99 -18 138 -75 26 -39 29 -101 7 -144
-20 -38 -3 -58 20 -23 39 59 31 148 -18 204 -60 69 -145 89 -222 54z"/>
<path d="M425 481 c-11 -5 -31 -21 -45 -36 -31 -33 -35 -104 -8 -132 17 -16
15 -18 -20 -31 -20 -7 -48 -16 -62 -19 -20 -5 -23 -3 -12 8 15 16 16 73 2 100
-16 28 -67 51 -99 44 -58 -13 -92 -82 -67 -137 6 -14 2 -20 -17 -27 -49 -19
-67 -56 -67 -142 0 -64 3 -79 15 -79 12 0 15 15 15 79 0 74 2 81 26 100 22 17
41 21 105 21 l79 0 -10 -26 c-6 -14 -10 -59 -10 -100 0 -59 3 -74 15 -74 12 0
15 16 15 80 0 74 2 82 29 112 l29 33 126 3 126 4 35 -35 c34 -34 35 -37 35
-116 0 -65 3 -81 15 -81 12 0 15 15 15 74 0 41 -4 86 -10 100 l-10 26 79 0
c64 0 83 -4 105 -21 24 -19 26 -26 26 -100 0 -64 3 -79 15 -79 12 0 15 15 15
79 0 86 -18 123 -67 142 -19 7 -23 14 -18 27 19 43 16 69 -9 99 -15 18 -40 34
-56 38 -33 7 -84 -15 -100 -44 -14 -27 -13 -84 3 -100 10 -11 7 -13 -13 -8
-14 3 -42 12 -63 20 -33 12 -36 16 -23 26 38 32 27 110 -22 154 -23 21 -87 31
-117 18z m106 -50 c36 -36 37 -70 3 -110 -20 -25 -34 -31 -64 -31 -30 0 -44 6
-64 31 -14 17 -26 42 -26 56 0 36 51 83 90 83 22 0 41 -9 61 -29z m-293 -57
c15 -10 22 -25 22 -46 0 -66 -69 -92 -109 -42 -27 34 -26 50 4 79 28 29 51 31
83 9z m547 -9 c28 -27 30 -37 14 -68 -15 -28 -28 -37 -58 -37 -57 0 -85 82
-39 114 32 22 55 20 83 -9z"/>
<path d="M102 88 c4 -74 28 -77 28 -4 0 44 -3 56 -16 56 -12 0 -14 -10 -12
-52z"/>
<path d="M322 88 c4 -74 28 -77 28 -4 0 44 -3 56 -16 56 -12 0 -14 -10 -12
-52z"/>
<path d="M590 84 c0 -73 24 -70 28 4 2 42 0 52 -12 52 -13 0 -16 -12 -16 -56z"/>
<path d="M810 84 c0 -73 24 -70 28 4 2 42 0 52 -12 52 -13 0 -16 -12 -16 -56z"/>
</g>
</svg>
