<?xml version="1.0" standalone="no"?>
<!DOCTYPE svg PUBLIC "-//W3C//DTD SVG 20010904//EN"
 "http://www.w3.org/TR/2001/REC-SVG-20010904/DTD/svg10.dtd">
<svg version="1.0" xmlns="http://www.w3.org/2000/svg"
 width="88.000000pt" height="84.000000pt" viewBox="0 0 88.000000 84.000000"
 preserveAspectRatio="xMidYMid meet">

<g transform="translate(0.000000,84.000000) scale(0.100000,-0.100000)"
fill="#000000" stroke="none">
<path d="M30 811 c0 -16 6 -31 15 -35 23 -8 23 -704 0 -712 -9 -4 -15 -19 -15
-35 l0 -29 410 0 410 0 0 30 c0 20 -5 30 -15 30 -13 0 -15 47 -15 360 0 342 1
360 18 360 15 0 18 6 14 30 l-4 30 -409 0 -409 0 0 -29z m170 -227 l0 -197
-35 -38 c-19 -22 -35 -47 -35 -58 0 -25 25 -45 50 -38 19 5 20 0 20 -94 l0
-99 -50 0 -50 0 0 360 0 360 50 0 50 0 0 -196z m145 -164 l0 -355 -53 -3 -53
-3 3 118 3 118 37 3 c40 3 63 28 48 52 -4 7 -28 17 -52 21 -43 8 -43 8 10 5
l52 -3 0 48 c0 26 -4 50 -8 53 -5 3 -28 -8 -50 -25 l-42 -31 0 182 0 181 53
-3 52 -3 0 -355z m145 0 l0 -360 -50 0 c-45 0 -50 2 -50 23 0 20 4 22 45 19
l45 -4 0 192 0 192 -45 -4 c-40 -3 -45 -1 -45 17 0 18 5 20 45 17 l46 -4 -3
93 -3 94 -43 0 -42 0 0 43 0 42 50 0 50 0 0 -360z m148 183 c1 -95 -1 -173 -6
-173 -4 0 -23 11 -42 25 -19 14 -38 25 -42 25 -4 0 -8 -24 -8 -54 l0 -54 48 4
c45 3 46 3 9 -5 -21 -4 -43 -13 -50 -20 -19 -19 6 -45 49 -51 l39 -5 0 -115 0
-115 -52 -3 -53 -3 0 361 0 361 53 -3 52 -3 3 -172z m142 -184 l0 -360 -52 3
-53 3 -2 103 -1 104 25 -7 c29 -7 53 9 53 37 0 11 -18 38 -39 60 l-39 40 -2
182 c0 100 3 185 6 189 4 4 29 7 56 7 l48 0 0 -361z m-383 229 c-3 -7 -5 -2
-5 12 0 14 2 19 5 13 2 -7 2 -19 0 -25z m0 -100 c-3 -8 -6 -5 -6 6 -1 11 2 17
5 13 3 -3 4 -12 1 -19z m0 -225 c-3 -10 -5 -2 -5 17 0 19 2 27 5 18 2 -10 2
-26 0 -35z m0 -156 c-2 -23 -3 -2 -3 48 0 50 1 68 3 42 2 -26 2 -67 0 -90z"/>
<path d="M332 600 c0 -19 2 -27 5 -17 2 9 2 25 0 35 -3 9 -5 1 -5 -18z"/>
<path d="M303 293 c-37 -5 -38 -7 -26 -125 6 -67 6 -68 34 -68 l29 0 0 100 c0
55 -1 99 -2 98 -2 0 -18 -3 -35 -5z"/>
<path d="M542 600 c0 -19 2 -27 5 -17 2 9 2 25 0 35 -3 9 -5 1 -5 -18z"/>
<path d="M540 200 c0 -92 2 -100 19 -100 16 0 21 10 26 53 11 85 4 129 -22
138 -23 8 -23 8 -23 -91z"/>
</g>
</svg>
