<?xml version="1.0" standalone="no"?>
<!DOCTYPE svg PUBLIC "-//W3C//DTD SVG 20010904//EN"
 "http://www.w3.org/TR/2001/REC-SVG-20010904/DTD/svg10.dtd">
<svg version="1.0" xmlns="http://www.w3.org/2000/svg"
 width="83.000000pt" height="83.000000pt" viewBox="0 0 83.000000 83.000000"
 preserveAspectRatio="xMidYMid meet">

<g transform="translate(0.000000,83.000000) scale(0.100000,-0.100000)"
fill="#000000" stroke="none">
<path d="M35 805 l-25 -24 0 -281 0 -281 25 -24 24 -25 356 0 356 0 24 25 25
24 0 281 0 281 -25 24 -24 25 -356 0 -356 0 -24 -25z m753 -247 l2 -238 -375
0 -375 0 0 233 c0 129 3 237 7 240 4 4 171 6 372 5 l366 -3 3 -237z m-360
-305 c-2 -10 -10 -18 -18 -18 -8 0 -16 8 -18 18 -2 12 3 17 18 17 15 0 20 -5
18 -17z"/>
<path d="M571 741 c-14 -25 -14 -27 5 -45 14 -15 9 -16 -54 -16 -57 0 -72 4
-87 20 -14 15 -26 19 -46 15 -21 -5 -27 -2 -32 14 -4 17 -13 21 -47 21 -34 0
-43 -4 -47 -21 -4 -16 -11 -19 -32 -14 -21 4 -33 -1 -55 -24 -24 -25 -26 -32
-16 -50 9 -18 7 -22 -15 -31 -21 -8 -25 -16 -25 -48 0 -32 5 -41 25 -50 22
-10 24 -15 15 -33 -17 -31 24 -73 62 -65 21 4 30 1 38 -14 16 -29 90 -29 97 1
5 16 11 19 32 14 20 -4 32 0 46 15 15 16 30 20 88 20 l70 0 -19 -21 c-22 -25
-9 -54 26 -54 34 0 49 29 27 53 -9 10 -17 26 -17 35 0 14 -12 17 -74 17 -47 0
-78 4 -82 12 -4 6 -2 14 5 16 8 3 22 13 32 23 20 20 74 26 84 9 3 -5 17 -10
30 -10 28 0 43 34 25 55 -14 17 -46 20 -55 5 -9 -15 -73 -12 -82 3 -4 8 -16
17 -26 20 -10 4 -17 13 -15 20 3 8 31 13 80 15 61 2 77 6 82 20 3 9 11 25 18
35 10 12 10 22 2 35 -16 25 -51 27 -63 3z m-188 -111 c39 -44 37 -92 -7 -136
-43 -43 -90 -46 -135 -8 -38 32 -49 80 -27 123 35 67 118 77 169 21z"/>
<path d="M275 118 c-9 -29 -15 -33 -50 -36 -36 -3 -65 -22 -65 -43 0 -4 7 -15
16 -23 23 -24 455 -24 478 0 9 8 16 19 16 23 0 21 -29 40 -65 43 -32 2 -43 9
-60 35 l-20 32 -120 1 -121 0 -9 -32z"/>
</g>
</svg>
